<?xml version="1.0" standalone="no"?>
<!DOCTYPE svg PUBLIC "-//W3C//DTD SVG 1.1//EN" "http://www.w3.org/Graphics/SVG/1.1/DTD/svg11.dtd" >
<svg xmlns="http://www.w3.org/2000/svg">
<metadata></metadata>
<defs>
<font id="sansserifbldflfmedium" horiz-adv-x="679" >
<font-face units-per-em="2048" ascent="1638" descent="-410" />
<missing-glyph horiz-adv-x="710" />
<glyph unicode="&#xfb01;" horiz-adv-x="1288" d="M63 651v291h115v197q0 171 120 275t364 104q138 0 237 -31t156.5 -90t83.5 -136t26 -178h-350q0 77 -32 114.5t-107 37.5q-144 0 -144 -127v-166h205v-291h-205v-651h-354v651h-115zM815 0v942h354v-942h-354z" />
<glyph unicode="&#xfb02;" horiz-adv-x="1288" d="M63 651v291h115v240q0 148 121 242t363 94q247 0 376 -85t129 -251l2 -1182h-354v1108q0 127 -139 127q-144 0 -144 -127v-166h205v-291h-205v-651h-354v651h-115z" />
<glyph horiz-adv-x="0" />
<glyph horiz-adv-x="682" />
<glyph unicode=" "  horiz-adv-x="710" />
<glyph unicode="&#x09;" horiz-adv-x="710" />
<glyph unicode="&#xa0;" horiz-adv-x="710" />
<glyph unicode="!" horiz-adv-x="626" d="M127 180q0 82 57.5 139.5t139.5 57.5t139 -57.5t57 -139.5t-57 -139t-139 -57t-139.5 57t-57.5 139zM145 455v1007h357v-1007h-357z" />
<glyph unicode="&#x22;" horiz-adv-x="700" d="M131 1532h158l-25 -393h-106zM432 1532h158l-25 -393h-108z" />
<glyph unicode="#" horiz-adv-x="1576" d="M84 549l57 225h254l60 234h-254l57 221h252l61 244h228l-62 -244h267l61 244h227l-61 -244h262l-55 -221h-262l-60 -234h262l-57 -225h-262l-62 -246h-227l61 246h-266l-61 -246h-225l59 246h-254zM623 774h266l59 234h-266z" />
<glyph unicode="$" horiz-adv-x="1232" d="M80 205l178 258q122 -160 354 -160q195 0 195 150q0 82 -54.5 120.5t-158.5 51.5q-202 27 -319 130t-117 273q0 171 112 292t308 148v134h145v-132q85 0 194.5 -28.5t174.5 -71.5l-125 -289q-48 23 -81 37t-91 27.5t-115 13.5q-174 0 -174 -106q0 -56 38 -82t144 -43 q463 -75 463 -461q0 -187 -108 -311t-320 -160v-162h-145v156q-170 10 -289.5 65t-208.5 150z" />
<glyph unicode="%" horiz-adv-x="1431" d="M70 1217q0 79 35.5 146t113 112t184.5 45q158 0 246 -90t88 -213q0 -57 -21.5 -110.5t-61.5 -96.5t-105 -69t-146 -26t-146 26t-105 69t-61 96t-21 111zM170 0l897 1462h188l-899 -1462h-186zM276 1214q0 -49 33.5 -85.5t93.5 -36.5q58 0 91.5 37.5t33.5 87.5t-33 86 t-92 36q-60 0 -93.5 -37t-33.5 -88zM713 287q0 123 88 213t246 90q107 0 184.5 -45t113 -112t35.5 -146q0 -46 -13 -89t-40.5 -81.5t-66 -67.5t-93.5 -46t-120 -17q-106 0 -184 44.5t-114 111.5t-36 145zM920 285q0 -50 33.5 -86.5t93.5 -36.5q58 0 91 37.5t33 87.5 t-32.5 86.5t-91.5 36.5q-60 0 -93.5 -37t-33.5 -88z" />
<glyph unicode="&#x26;" horiz-adv-x="1388" d="M94 360q0 97 24.5 164t93 138.5t200.5 162.5l-76 113q-35 53 -53.5 102.5t-18.5 118.5q0 56 24.5 112t70 103.5t120 77t164.5 29.5q180 0 282.5 -93.5t102.5 -228.5q0 -68 -12 -116t-47 -93t-78.5 -80.5t-124.5 -91.5l176 -262l221 154l148 -228l-215 -147l202 -295h-321 l-96 143q-11 -8 -42.5 -31t-42 -30.5t-38 -24.5t-42.5 -23t-43.5 -17t-53 -14.5t-58.5 -7t-72 -3.5q-94 0 -171 32t-124.5 85t-73.5 117.5t-26 133.5zM373 395q0 -58 41.5 -98.5t107.5 -40.5q19 0 38 5.5t41.5 18.5t37.5 23t44.5 32t43.5 32l-178 256q-8 -6 -39 -25t-49 -34 t-41.5 -39.5t-35 -57.5t-11.5 -72zM532 1147q0 -26 33 -78l62 -90q35 23 44 29t31.5 23.5t27.5 25t15.5 23t12.5 30.5t2 35q0 45 -30.5 72.5t-80.5 27.5q-52 0 -84.5 -29t-32.5 -69z" />
<glyph unicode="'" horiz-adv-x="407" d="M131 1532h158l-25 -393h-106z" />
<glyph unicode="(" horiz-adv-x="659" d="M63 670q0 267 111 508t322 395l143 -133q-177 -130 -271 -332t-94 -428q0 -218 89.5 -415.5t261.5 -330.5l-144 -131q-203 141 -310.5 372t-107.5 495z" />
<glyph unicode=")" d="M61 1440l144 133q210 -154 321 -395t111 -508q0 -264 -107.5 -495t-310.5 -372l-143 131q172 132 261 330t89 416q0 226 -94 428t-271 332z" />
<glyph unicode="*" horiz-adv-x="700" d="M86 1122q0 70 234 125q7 1 10 2q-6 2 -31.5 8t-43 11t-45 13.5t-46.5 17.5t-38 20.5t-28.5 25t-9.5 27.5q0 20 13 34.5t32 14.5q31 0 76 -30.5t74.5 -60t56.5 -60.5q-37 132 -37 198q0 80 51 80q52 0 52 -80q0 -20 -2 -41t-7 -44.5t-8.5 -38t-10.5 -41t-9 -33.5 q132 153 206 153q18 0 33 -13.5t15 -33.5q0 -15 -10 -29t-29 -25.5t-38.5 -21t-47 -18t-46 -14t-42.5 -11.5t-31 -8q6 -2 29.5 -7.5t42 -10.5t45.5 -13t47 -17t39 -20.5t29 -25.5t10 -29q0 -21 -13 -35t-33 -14q-74 0 -206 152q1 -6 11.5 -43t13.5 -51.5t7.5 -45t4.5 -57.5 q0 -80 -52 -80q-51 0 -51 80q0 32 5 62.5t17.5 78.5t14.5 56q-28 -32 -57.5 -61.5t-74.5 -61t-75 -31.5q-18 0 -32.5 13.5t-14.5 33.5z" />
<glyph unicode="+" horiz-adv-x="1097" d="M137 500v209h314v313h208v-313h314l4 -209h-315v-314h-209v314h-316z" />
<glyph unicode="," horiz-adv-x="471" d="M10 -305l154 530h268l-268 -530h-154z" />
<glyph unicode="-" horiz-adv-x="825" d="M147 500v209h535v-209h-535z" />
<glyph unicode="." horiz-adv-x="522" d="M90 168q0 74 51 125t125 51t125 -51t51 -125t-51 -125t-125 -51t-125 51t-51 125z" />
<glyph unicode="/" horiz-adv-x="669" d="M27 -94l471 1620h147l-471 -1620h-147z" />
<glyph unicode="0" horiz-adv-x="1441" d="M53 729q0 114 26.5 222t81.5 204t132.5 168t188 114t239.5 42t239 -42t187 -113.5t131 -167t80 -203.5t26 -222t-26 -222t-80.5 -204.5t-131.5 -168.5t-186.5 -114t-238.5 -42t-239.5 42t-188 114t-132.5 167.5t-81.5 203.5t-26.5 222zM408 729q0 -89 20 -170.5 t57.5 -148t98.5 -106.5t137 -40t137 40t98.5 106.5t57.5 148t20 170.5q0 121 -33.5 224.5t-106.5 173t-173 69.5t-173 -69.5t-106.5 -173t-33.5 -224.5z" />
<glyph unicode="1" horiz-adv-x="784" d="M113 1192v270h555v-1462h-357v1192h-198z" />
<glyph unicode="2" horiz-adv-x="1153" d="M37 0l549 762q56 79 77 139.5t21 132.5q0 133 -135 133q-77 0 -112.5 -59.5t-35.5 -151.5h-344q0 105 30.5 196.5t90 164.5t158 115.5t223.5 42.5q243 0 381.5 -118.5t138.5 -301.5q0 -151 -49 -264t-153 -242l-205 -256h413v-293h-1048z" />
<glyph unicode="3" horiz-adv-x="1261" d="M82 426h330q0 -57 62.5 -100t156.5 -43q104 0 163.5 53t59.5 158q0 117 -66 161.5t-186 44.5v166q51 0 88.5 7t70 25t49.5 53t17 87q0 84 -56.5 123t-147.5 39q-96 0 -148.5 -50t-52.5 -116h-330q-1 66 16 128t57.5 120.5t101 102t153.5 70t209 26.5q251 0 398 -109 t147 -291q0 -66 -10 -114.5t-32 -82t-47 -55t-63 -43.5q91 -32 143 -119t52 -221q0 -211 -161.5 -336.5t-412.5 -125.5q-136 0 -244.5 36t-176.5 98t-104 140.5t-36 167.5z" />
<glyph unicode="4" horiz-adv-x="1421" d="M115 258v295l710 909h334v-934h189v-270h-189v-258h-354v258h-690zM408 528h397v504z" />
<glyph unicode="5" horiz-adv-x="1191" d="M68 72l38 293q70 -42 151 -67.5t202 -25.5q147 0 239.5 73.5t92.5 211.5q0 126 -90 198t-232 72q-80 0 -161.5 -15.5t-125.5 -37.5l97 688h718v-270h-460l-23 -160q49 8 109 8q77 0 149.5 -19t136.5 -60t111.5 -99t75.5 -141.5t28 -183.5q0 -142 -46.5 -249t-132.5 -174 t-203 -100.5t-263 -33.5q-246 0 -411 92z" />
<glyph unicode="6" horiz-adv-x="1390" d="M72 494q0 86 21.5 169.5t84.5 190.5l365 608h377l-308 -530q62 39 166 39q106 0 201 -28.5t174.5 -85.5t126.5 -154.5t47 -223.5q0 -243 -172.5 -377.5t-480.5 -134.5q-144 0 -260 41t-190 113t-113 167t-39 206zM451 467q0 -99 64 -171.5t179 -72.5t179.5 73t64.5 171 q0 100 -64.5 173t-179.5 73t-179 -73t-64 -173z" />
<glyph unicode="7" horiz-adv-x="1232" d="M16 0l672 1192h-604v270h1130l-798 -1464z" />
<glyph unicode="8" horiz-adv-x="1187" d="M76 395q0 82 23 150.5t62 113.5t79.5 74t85.5 47q-43 21 -74.5 44.5t-64 61t-49.5 93t-17 125.5q0 158 132 269.5t345 111.5q212 0 340.5 -111t128.5 -270q0 -69 -17.5 -125t-49 -93.5t-62 -61t-70.5 -44.5q36 -13 69 -33t67 -52.5t58.5 -73t40 -98t15.5 -124.5 q0 -87 -38 -166.5t-104.5 -139t-163 -95t-208.5 -35.5q-235 0 -381.5 124t-146.5 308zM416 451q0 -75 47.5 -129t134.5 -54q86 0 133 54t47 129q0 73 -47 126.5t-133 53.5q-87 0 -134.5 -53.5t-47.5 -126.5zM471 1090q0 -51 33.5 -89t93.5 -38q58 0 91.5 38t33.5 89 q0 50 -33.5 87t-91.5 37q-59 0 -93 -37t-34 -87z" />
<glyph unicode="9" horiz-adv-x="1431" d="M102 967q0 225 172 368.5t457 143.5q153 0 274.5 -41t197.5 -113t115.5 -167t39.5 -206q0 -88 -21.5 -171.5t-85.5 -188.5l-360 -592h-377l303 514q-62 -39 -166 -39q-106 0 -201 28.5t-174.5 85.5t-126.5 154.5t-47 223.5zM492 979q0 -100 64 -173t179 -73t179.5 73 t64.5 173q0 98 -64.5 171t-179.5 73t-179 -72.5t-64 -171.5z" />
<glyph unicode=":" horiz-adv-x="522" d="M90 168q0 74 51 125t125 51t125 -51t51 -125t-51 -125t-125 -51t-125 51t-51 125zM90 745q0 74 51.5 125.5t124.5 51.5t124.5 -51.5t51.5 -125.5q0 -73 -51 -124.5t-125 -51.5t-125 51.5t-51 124.5z" />
<glyph unicode=";" horiz-adv-x="501" d="M10 -305l154 530h268l-268 -530h-154zM92 745q0 74 51.5 125.5t124.5 51.5t124.5 -51.5t51.5 -125.5q0 -73 -51 -124.5t-125 -51.5t-125 51.5t-51 124.5z" />
<glyph unicode="&#x3c;" horiz-adv-x="720" d="M90 606l551 492v-303l-219 -189l205 -188v-303z" />
<glyph unicode="=" horiz-adv-x="888" d="M129 270v209h629v-209h-629zM129 645v209h629v-209h-629z" />
<glyph unicode="&#x3e;" horiz-adv-x="720" d="M117 795v303l553 -492l-539 -491v303l205 188z" />
<glyph unicode="?" horiz-adv-x="1128" d="M53 1026q4 64 23.5 125.5t59 120.5t95 103t139.5 71t185 27q108 0 197 -24.5t149.5 -65.5t102 -97t60.5 -118.5t19 -129.5q0 -219 -101.5 -341t-283.5 -122v-143h-317v373h117q88 0 137 49t49 147q0 90 -33 129t-106 39q-68 0 -98.5 -36t-38.5 -107h-355zM344 180 q0 82 57.5 139.5t139.5 57.5t139 -57.5t57 -139.5t-57 -139t-139 -57t-139.5 57t-57.5 139z" />
<glyph unicode="@" horiz-adv-x="1382" d="M53 821q0 119 42.5 230.5t121.5 201t205 143.5t280 54q142 0 264 -50t203 -133t126.5 -190.5t45.5 -222.5q0 -66 -14 -128.5t-44 -119t-84 -91t-126 -34.5q-60 0 -101 15.5t-59.5 34t-35.5 49.5q-80 -99 -242 -99q-135 0 -215 84t-80 211q0 63 22.5 123.5t64 109.5 t107.5 79t146 30q143 0 217 -112l18 98h129l-75 -393q0 -27 3 -44.5t13 -38.5t35.5 -31.5t64.5 -10.5q80 0 122 78t42 190q0 95 -39 185t-108 161.5t-173.5 114.5t-226.5 43q-110 0 -203 -31.5t-157 -84t-109.5 -122t-66.5 -145.5t-21 -154q0 -106 38.5 -202t108 -169.5 t174.5 -117t230 -43.5q112 0 187 24t145 74l55 -74q-76 -57 -163.5 -86.5t-223.5 -29.5q-143 0 -264 48t-204 131t-129 198t-46 247zM463 784q0 -77 44 -128.5t136 -51.5q95 0 149 62t54 145q0 76 -44.5 130t-123.5 54q-106 0 -160.5 -62.5t-54.5 -148.5z" />
<glyph unicode="A" horiz-adv-x="1378" d="M41 0l451 1462h407l451 -1462h-355l-65 211h-465l-68 -211h-356zM561 537h273l-134 448z" />
<glyph unicode="B" horiz-adv-x="1232" d="M125 0v1462h489q197 0 315 -107.5t118 -285.5q0 -226 -136 -287q114 -31 182 -120t68 -238q0 -205 -127.5 -314.5t-333.5 -109.5h-575zM481 272h154q76 0 124 46t48 131q0 83 -48 130.5t-124 47.5h-154v-355zM481 899h68q68 0 105.5 37t37.5 106q0 66 -38.5 108 t-104.5 42h-68v-293z" />
<glyph unicode="C" horiz-adv-x="1290" d="M63 731q0 114 31 222t95 203.5t154.5 167t218.5 113.5t278 42q96 0 167.5 -13.5t101.5 -26.5t87 -44v-381q-44 25 -66.5 36t-67 27.5t-96 23.5t-116.5 7q-99 0 -178 -30.5t-128.5 -83t-75.5 -119.5t-26 -144t26 -144t75.5 -119.5t128.5 -83t178 -30.5q125 0 202.5 22 t143.5 62v-381q-131 -82 -342 -82q-153 0 -283.5 42.5t-222.5 115t-157.5 169.5t-96.5 205.5t-31 223.5z" />
<glyph unicode="D" horiz-adv-x="1368" d="M125 0v1462h502q137 0 254 -41t199.5 -111.5t140.5 -164t86 -199t28 -217.5q0 -111 -27.5 -216t-86 -198.5t-140.5 -163t-199 -110.5t-255 -41h-502zM481 311h92q119 0 209 59.5t134.5 153t44.5 203.5t-45 205t-135.5 156t-207.5 61h-92v-838z" />
<glyph unicode="E" horiz-adv-x="1013" d="M127 0v1462h786v-313h-430v-260h406v-314h-406v-262h430v-313h-786z" />
<glyph unicode="F" horiz-adv-x="1003" d="M127 0v1462h786v-313h-430v-260h408v-314h-408v-575h-356z" />
<glyph unicode="G" horiz-adv-x="1587" d="M49 727q0 153 59.5 292.5t160 240t240 160t292.5 59.5q183 0 342.5 -83t265.5 -227l-287 -196q-57 72 -138.5 113.5t-176.5 41.5q-166 0 -282.5 -116.5t-116.5 -282.5t116.5 -282.5t282.5 -116.5q112 0 205 57t145 152h-319v272h710q4 -54 4 -84q0 -153 -59.5 -292.5 t-159.5 -240t-239.5 -160t-292.5 -59.5t-292.5 59.5t-240 160t-160 240t-59.5 292.5z" />
<glyph unicode="H" horiz-adv-x="1421" d="M125 0v1462h356v-573h467v573h357v-1462h-357v573h-467v-573h-356z" />
<glyph unicode="I" horiz-adv-x="636" d="M143 0v1462h357v-1462h-357z" />
<glyph unicode="J" horiz-adv-x="1075" d="M82 156l219 245q73 -88 172 -88q154 0 154 174v975h356v-1011q0 -98 -29 -177.5t-77.5 -132.5t-114.5 -89t-138 -52t-149 -16q-247 0 -393 172z" />
<glyph unicode="K" horiz-adv-x="1431" d="M125 0v1462h356v-528l439 528h407l-575 -671l622 -791h-422l-471 596v-596h-356z" />
<glyph unicode="L" horiz-adv-x="950" d="M125 0v1462h356v-1149h391v-313h-747z" />
<glyph unicode="M" horiz-adv-x="1785" d="M39 0l233 1462h377l250 -790l266 790h371l213 -1462h-354l-119 817l-272 -817h-209l-275 817l-125 -817h-356z" />
<glyph unicode="N" horiz-adv-x="1671" d="M131 0v1462h326l727 -860v860h356v-1462h-356l-697 848v-848h-356z" />
<glyph unicode="O" horiz-adv-x="1630" d="M66 727q0 153 59.5 292.5t159.5 240t239.5 160t292.5 59.5t292.5 -59.5t240 -160t160 -240t59.5 -292.5t-59.5 -292.5t-160 -240t-240 -160t-292.5 -59.5t-292.5 59.5t-239.5 160t-159.5 240t-59.5 292.5zM418 729q0 -166 116.5 -282.5t282.5 -116.5t283 116.5t117 282.5 t-117 282.5t-283 116.5t-282.5 -116.5t-116.5 -282.5z" />
<glyph unicode="P" horiz-adv-x="1175" d="M125 0v1462h547q202 0 335.5 -125.5t133.5 -335.5t-133.5 -334t-335.5 -124h-191v-543h-356zM481 856h158q74 0 110.5 39t36.5 106q0 65 -40 106.5t-107 41.5h-158v-293z" />
<glyph unicode="Q" horiz-adv-x="1640" d="M66 727q0 153 59.5 292.5t159.5 240t239.5 160t292.5 59.5t292.5 -59.5t240 -160t160 -240t59.5 -292.5q0 -177 -77.5 -332.5t-213.5 -261.5l170 -250l-332 -53l-115 168q-94 -23 -184 -23q-153 0 -292.5 59.5t-239.5 160t-159.5 240t-59.5 292.5zM418 729 q0 -155 102.5 -268.5t255.5 -128.5l-119 174l332 53l90 -131q138 122 138 301q0 166 -117 282.5t-283 116.5t-282.5 -116.5t-116.5 -282.5z" />
<glyph unicode="R" horiz-adv-x="1282" d="M125 0v1462h547q202 0 335.5 -125.5t133.5 -335.5q0 -160 -81 -273t-216 -159l368 -569h-389l-342 541v-541h-356zM481 856h158q74 0 110.5 39t36.5 106q0 65 -40 106.5t-107 41.5h-158v-293z" />
<glyph unicode="S" horiz-adv-x="1171" d="M20 180l179 258q172 -137 360 -137q84 0 131 43t47 105q0 147 -194 182q-215 38 -316.5 140t-101.5 251q0 200 146.5 326.5t387.5 126.5q125 0 217 -27t181 -78l-125 -289q-137 84 -258 84q-69 0 -114.5 -33t-45.5 -92q0 -47 39 -77t131 -43q209 -31 319.5 -156.5 t110.5 -300.5q0 -91 -35 -175.5t-100 -152t-168 -107.5t-229 -40q-183 0 -314.5 49.5t-247.5 142.5z" />
<glyph unicode="T" horiz-adv-x="1118" d="M88 1149v313h940v-313h-293v-1149h-354v1149h-293z" />
<glyph unicode="U" horiz-adv-x="1320" d="M104 467v995h355v-956q0 -102 57 -153.5t148 -51.5q90 0 147 51.5t57 153.5v956h357v-995q0 -119 -44.5 -212t-122 -151t-178 -88t-216.5 -30q-92 0 -174.5 18.5t-153.5 57.5t-122.5 95t-80.5 135.5t-29 174.5z" />
<glyph unicode="V" horiz-adv-x="1495" d="M31 1462h356l365 -999l366 999h355l-543 -1462h-355z" />
<glyph unicode="W" horiz-adv-x="1906" d="M25 1462h356l207 -846l233 846h273l217 -846l227 846h354l-413 -1462h-283l-246 793l-248 -793h-284z" />
<glyph unicode="X" horiz-adv-x="1435" d="M39 0l481 774l-442 688h397l240 -379l225 379h418l-436 -698l489 -764h-401l-287 455l-283 -455h-401z" />
<glyph unicode="Y" horiz-adv-x="1347" d="M39 1462h399l242 -381l225 381h418l-467 -721v-741h-354v741z" />
<glyph unicode="Z" horiz-adv-x="1351" d="M35 0l686 1145h-604v317h1192l-688 -1145h657v-317h-1243z" />
<glyph unicode="[" horiz-adv-x="575" d="M121 -219v1849h348v-147h-139v-1557h145v-145h-354z" />
<glyph unicode="\" horiz-adv-x="626" d="M27 1536h147l440 -1610h-147z" />
<glyph unicode="]" horiz-adv-x="575" d="M111 -74h143v1557h-137v147h348v-1849h-354v145z" />
<glyph unicode="^" horiz-adv-x="804" d="M102 848l277 518h74l276 -518h-84l-229 328l-230 -328h-84z" />
<glyph unicode="_" horiz-adv-x="731" d="M0 -39h760v-74h-760v74z" />
<glyph unicode="`" horiz-adv-x="595" d="M109 1382l127 127l256 -325l-54 -45z" />
<glyph unicode="a" horiz-adv-x="1234" d="M61 467q0 93 30 179t86.5 155.5t148 111t204.5 41.5q199 0 283 -73v69h313v-950h-313v59q-30 -22 -58.5 -37t-88.5 -28.5t-136 -13.5q-113 0 -204.5 41.5t-148 111t-86.5 155.5t-30 179zM412 475q0 -79 57 -136.5t137 -57.5t137.5 57.5t57.5 136.5t-57.5 137t-137.5 58 q-79 0 -136.5 -57.5t-57.5 -137.5z" />
<glyph unicode="b" horiz-adv-x="1191" d="M82 0v1516h313v-635q48 35 109 54t174 19t204.5 -41.5t148 -111t86.5 -155.5t30 -179t-30 -179t-86.5 -155.5t-148 -111t-204.5 -41.5q-170 0 -283 79v-59h-313zM399 475q0 -79 57.5 -136.5t137.5 -57.5t137 57.5t57 136.5q0 80 -57.5 137.5t-136.5 57.5 q-80 0 -137.5 -58t-57.5 -137z" />
<glyph unicode="c" horiz-adv-x="851" d="M29 465q0 93 30.5 179.5t88.5 156t151.5 111.5t208.5 42q165 0 289 -55v-307q-33 20 -52 29t-62 18.5t-99 9.5q-91 0 -146 -50.5t-55 -133.5q0 -82 54 -126t147 -44q80 0 128 16.5t85 50.5v-315q-33 -20 -62 -33t-90 -25t-137 -12q-93 0 -172 27.5t-134.5 74t-95 109 t-58.5 133t-19 144.5z" />
<glyph unicode="d" horiz-adv-x="1198" d="M45 467q0 93 30 179t86.5 155.5t148 111t204.5 41.5t174 -19t109 -54v635h313v-1516h-313v59q-113 -79 -283 -79q-113 0 -204.5 41.5t-148 111t-86.5 155.5t-30 179zM403 475q0 -79 57.5 -136.5t137.5 -57.5t137.5 57.5t57.5 136.5t-57.5 137t-137.5 58t-137.5 -58 t-57.5 -137z" />
<glyph unicode="e" horiz-adv-x="1122" d="M53 467q0 74 21 146t64.5 136.5t103.5 114t143.5 78.5t179.5 29q108 0 195.5 -28t147 -76.5t100 -115t59 -141t18.5 -157.5q0 -36 -2 -52h-688q2 -74 48 -121t122 -47q146 0 176 76h314q-15 -47 -35.5 -88t-61 -88.5t-92.5 -81t-134 -56t-181 -22.5q-120 0 -217 42.5 t-157 113.5t-92 158t-32 180zM399 604h328q-5 50 -48 89.5t-118 39.5t-117.5 -40t-44.5 -89z" />
<glyph unicode="f" horiz-adv-x="802" d="M63 649v293h115v242q0 173 101 253.5t321 80.5q86 0 158 -21v-250q-36 10 -105 10q-57 0 -89 -28t-32 -82v-205h201v-293h-201v-649h-354v649h-115z" />
<glyph unicode="g" horiz-adv-x="1288" d="M102 475q0 92 30 176.5t86.5 152.5t148.5 109t206 41q77 0 134.5 -12t83.5 -24.5t63 -36.5v61h313v-913q0 -99 -31.5 -179t-96 -141t-170.5 -94t-248 -33q-108 0 -195 21t-143 54t-95 78.5t-57.5 90.5t-24.5 94h338q33 -86 203 -86q105 0 156 46.5t51 127.5v68 q-46 -39 -109 -59.5t-172 -20.5q-114 0 -206 41t-148.5 109t-86.5 152.5t-30 176.5zM453 475q0 -79 57.5 -136.5t136.5 -57.5q80 0 137.5 57.5t57.5 136.5t-58 137t-137 58t-136.5 -57.5t-57.5 -137.5z" />
<glyph unicode="h" horiz-adv-x="1202" d="M78 0v1516h354v-695q84 140 293 140q202 0 309 -101.5t107 -290.5v-569h-355v489q0 95 -35 145t-126 50q-82 0 -137.5 -63.5t-55.5 -126.5v-494h-354z" />
<glyph unicode="i" horiz-adv-x="520" d="M78 1294q0 78 56 134.5t134 56.5t134.5 -56.5t56.5 -134.5t-56.5 -134t-134.5 -56t-134 56t-56 134zM92 0v942h354v-942h-354z" />
<glyph unicode="j" horiz-adv-x="534" d="M78 1294q0 78 56 134.5t134 56.5t134.5 -56.5t56.5 -134.5t-56.5 -134t-134.5 -56t-134 56t-56 134zM90 -410v1352h356v-1352h-356z" />
<glyph unicode="k" horiz-adv-x="1329" d="M115 0v1516h356v-908l352 336h406l-426 -440l500 -504h-449l-383 387v-387h-356z" />
<glyph unicode="l" horiz-adv-x="626" d="M135 0v1516h357v-1516h-357z" />
<glyph unicode="m" horiz-adv-x="1859" d="M92 0v942h352v-76q105 92 322 92q222 0 315 -112q25 25 45 40t56.5 34t90 28.5t122.5 9.5q183 0 284 -84.5t101 -234.5v-639h-353v569q0 65 -40 108.5t-117 43.5q-78 0 -119 -44t-41 -104v-573h-352v580q0 139 -156 139q-84 0 -121 -40.5t-37 -103.5v-575h-352z" />
<glyph unicode="n" horiz-adv-x="1191" d="M92 0v942h352v-86q102 102 304 102q370 0 370 -368v-590h-352v514q0 99 -30.5 150t-119.5 51q-51 0 -87 -15.5t-53.5 -42t-24.5 -52.5t-7 -56v-549h-352z" />
<glyph unicode="o" horiz-adv-x="1130" d="M53 473q0 95 33.5 183t96 159.5t164 114.5t226.5 43t225.5 -43t162 -114.5t94 -159.5t32.5 -183q0 -97 -32.5 -185t-94 -159t-162 -113.5t-225.5 -42.5t-226.5 42.5t-164 113.5t-96 159.5t-33.5 184.5zM377 471q0 -80 57.5 -137.5t136.5 -57.5q82 0 138.5 57.5 t56.5 137.5t-56.5 137.5t-138.5 57.5q-79 0 -136.5 -57.5t-57.5 -137.5z" />
<glyph unicode="p" horiz-adv-x="1226" d="M102 -410v1352h314v-59q114 80 282 80q113 0 204.5 -41.5t148 -111t86.5 -156t30 -179.5t-30 -179t-86.5 -155.5t-148 -111t-204.5 -41.5t-173.5 19t-108.5 54v-471h-314zM420 467q0 -80 57.5 -137.5t136.5 -57.5q80 0 137.5 58t57.5 137t-57.5 137t-137.5 58 q-79 0 -136.5 -57.5t-57.5 -137.5z" />
<glyph unicode="q" horiz-adv-x="1198" d="M49 475q0 93 30 179.5t86.5 156t148 111t204.5 41.5q169 0 283 -80v59h313v-1352h-313v471q-48 -35 -109 -54t-174 -19t-204.5 41.5t-148 111t-86.5 155.5t-30 179zM408 467q0 -80 57.5 -137.5t136.5 -57.5q80 0 137.5 58t57.5 137t-57.5 137t-137.5 58 q-79 0 -136.5 -57.5t-57.5 -137.5z" />
<glyph unicode="r" horiz-adv-x="845" d="M104 0v942h355v-65q90 90 229 90q71 0 131 -27v-268q-61 18 -123 18q-61 0 -112.5 -20t-88 -69.5t-36.5 -121.5v-479h-355z" />
<glyph unicode="s" horiz-adv-x="878" d="M23 104l116 195q130 -92 248 -92q105 0 105 59q0 67 -125 86q-287 44 -287 271q0 65 23 120t61.5 93.5t90 66t109 40.5t117.5 13q80 0 140 -9.5t91 -20t89 -35.5l-84 -213q-92 53 -182 53q-93 0 -93 -57q0 -48 107 -64q136 -22 211.5 -106t75.5 -191q0 -154 -109 -246 t-315 -92q-217 0 -389 129z" />
<glyph unicode="t" horiz-adv-x="794" d="M78 649v293h115v275h354v-275h198v-293h-198v-649h-354v649h-115z" />
<glyph unicode="u" horiz-adv-x="1132" d="M88 381v561h354v-543q0 -64 34 -96.5t93 -32.5q58 0 91.5 32t33.5 97v543h355v-561q0 -191 -129.5 -297.5t-350.5 -106.5t-351 106.5t-130 297.5z" />
<glyph unicode="v" horiz-adv-x="1181" d="M39 942h356l209 -477l209 477h354l-458 -942h-209z" />
<glyph unicode="w" horiz-adv-x="1798" d="M31 942h354l209 -498l229 498h172l230 -493l207 493h354l-416 -942h-246l-215 446l-204 -446h-248z" />
<glyph unicode="x" horiz-adv-x="1171" d="M35 0l360 477l-358 465h389l162 -227l157 227h390l-351 -465l365 -477h-391l-168 236l-166 -236h-389z" />
<glyph unicode="y" horiz-adv-x="1306" d="M31 942h354l272 -496l273 496h356l-754 -1354h-354l303 549z" />
<glyph unicode="z" horiz-adv-x="1097" d="M72 0l442 655h-412v287h957l-414 -655h383v-287h-956z" />
<glyph unicode="{" horiz-adv-x="647" d="M82 727q53 39 83 83t30 110v387q0 163 88.5 240t298.5 77v-160q-107 0 -143 -38t-36 -140v-344q0 -85 -44 -139.5t-111 -75.5q66 -27 110.5 -82t44.5 -125v-409q0 -99 36.5 -136.5t142.5 -37.5v-160q-211 0 -299 79t-88 250v431q0 117 -113 190z" />
<glyph unicode="|" horiz-adv-x="366" d="M111 -94v1640h147v-1640h-147z" />
<glyph unicode="}" horiz-adv-x="647" d="M82 -63q106 0 142 37.5t36 136.5v409q0 70 45 125t111 82q-68 21 -112 75.5t-44 139.5v344q0 102 -36 140t-142 38v160q210 0 298.5 -77t88.5 -240v-387q0 -66 30 -110t83 -83q-113 -73 -113 -190v-431q0 -171 -88 -250t-299 -79v160z" />
<glyph unicode="~" horiz-adv-x="950" d="M78 885q49 59 106.5 90t149.5 31q78 0 166 -43q5 -3 20.5 -12t21 -12.5t18.5 -10t21 -8.5t19.5 -4.5t22.5 -2.5q71 0 109 20.5t75 63.5l84 -82q-49 -59 -108 -89.5t-156 -30.5q-84 0 -160 45q-25 16 -39.5 24t-40 15.5t-53.5 7.5q-48 0 -82 -13t-48 -26t-42 -45z" />
<glyph unicode="&#xa1;" horiz-adv-x="626" d="M113 1030q0 82 57 139.5t139 57.5t139.5 -57.5t57.5 -139.5t-57.5 -139t-139.5 -57t-139 57t-57 139zM131 -252v1008h356v-1008h-356z" />
<glyph unicode="&#xa2;" horiz-adv-x="929" d="M119 694q0 105 40.5 194t125 149t200.5 67v119h115v-119q125 -5 207 -70v-207q-29 27 -51 43t-70.5 32t-110.5 16q-112 0 -166.5 -63t-54.5 -155q0 -94 56.5 -161.5t164.5 -67.5q152 0 232 84v-207q-99 -65 -207 -65v-125h-115v125q-172 13 -269 128.5t-97 282.5z" />
<glyph unicode="&#xa3;" horiz-adv-x="1148" d="M72 254q22 31 86 59t131 41q46 44 62 107t16 151h-236v160h213q-5 24 -17.5 48t-23.5 38.5t-32 39t-29 34.5q-70 89 -70 213q0 144 114 236t302 92q182 0 298.5 -78t153.5 -203l-235 -119q-50 146 -174 146q-56 0 -89.5 -27t-33.5 -82q0 -17 4.5 -34t9 -28.5t16 -28.5 t17 -24t20.5 -24.5t19 -22.5q67 -85 86 -176h244v-160h-219q0 -99 -12 -162.5t-52 -130.5q5 -2 26.5 -9t33 -10.5t31 -8.5t36.5 -7.5t33 -2.5q71 0 144.5 24.5t105.5 59.5l49 -250q-41 -43 -135.5 -85t-208.5 -42q-99 0 -199 45q-34 16 -53.5 24t-50 15.5t-60.5 7.5 q-83 0 -134 -18t-116 -64z" />
<glyph unicode="&#xa5;" horiz-adv-x="1347" d="M33 1462h405l242 -379l240 379h407l-471 -721h209v-114h-209v-84h209v-115h-209v-428h-354v428h-209v115h209v84h-209v114h209z" />
<glyph unicode="&#xa6;" horiz-adv-x="303" d="M94 0v553h111v-553h-111zM94 772v608h111v-608h-111z" />
<glyph unicode="&#xa7;" horiz-adv-x="1075" d="M70 672q0 179 149 274q-69 90 -69 201q0 76 27 145.5t78 125.5t133.5 89t184.5 33q218 0 390 -129l-117 -194q-130 92 -248 92q-154 0 -154 -144q0 -66 44.5 -100t129.5 -47q178 -28 282 -121t104 -254q0 -87 -39 -157.5t-111 -114.5q70 -94 70 -203q0 -76 -27 -145.5 t-78 -125.5t-134 -89t-185 -33q-217 0 -389 129l116 194q130 -92 248 -92q154 0 154 144q0 66 -44.5 100t-129.5 47q-177 28 -281 121t-104 254zM354 670q0 -74 62.5 -113t134.5 -39q168 0 168 127q0 50 -33.5 86t-76.5 51t-87 15q-168 0 -168 -127z" />
<glyph unicode="&#xa8;" horiz-adv-x="751" d="M27 1292q0 63 45 108.5t108 45.5t108.5 -45.5t45.5 -108.5t-45.5 -108t-108.5 -45t-108 45t-45 108zM432 1292q0 63 45.5 108.5t108.5 45.5t108 -45.5t45 -108.5t-45 -108t-108 -45t-108.5 45t-45.5 108z" />
<glyph unicode="&#xa9;" horiz-adv-x="1204" d="M76 797q0 146 72 270t196 196t270 72t270 -72t196.5 -196t72.5 -270t-72.5 -270t-196.5 -196.5t-270 -72.5t-270 72.5t-196 196.5t-72 270zM119 799q0 -135 66.5 -249.5t181 -181.5t249.5 -67t249.5 67t181.5 181.5t67 249.5t-67 249.5t-181.5 181t-249.5 66.5 q-101 0 -193 -39.5t-158.5 -106t-106 -158.5t-39.5 -193zM348 807q0 100 70 173t196 73q45 0 86 -11t61 -22t48 -29v-49q-91 70 -195 70q-106 0 -165.5 -61t-59.5 -144t59.5 -145t165.5 -62q118 0 195 80v-49q-77 -72 -195 -72q-125 0 -195.5 74t-70.5 174z" />
<glyph unicode="&#xaa;" horiz-adv-x="720" d="M74 653v72h596v-72h-596zM86 1067q0 100 62 172t174 72q98 0 141 -37v35h155v-475h-155v30q-57 -41 -141 -41q-112 0 -174 72.5t-62 171.5zM262 1071q0 -40 28 -68t68 -28t69.5 28.5t29.5 67.5q0 40 -29.5 69t-69.5 29t-68 -29t-28 -69z" />
<glyph unicode="&#xab;" horiz-adv-x="1277" d="M53 543v168l469 344l129 -211l-315 -217l315 -217l-137 -203zM627 543v168l471 344l129 -211l-316 -217l316 -217l-137 -203z" />
<glyph unicode="&#xac;" d="M76 731v74h540v-74h-540zM121 180q0 70 33 112.5t79 61.5q-92 41 -92 146q0 70 59 120t154 50q96 0 153.5 -49.5t57.5 -120.5q0 -103 -88 -146q45 -17 79 -59.5t34 -112.5q0 -80 -66 -138t-166 -58q-106 0 -171.5 55.5t-65.5 138.5zM186 1399v123h250v-660h-160v537h-90z M272 205q0 -33 21.5 -57.5t60.5 -24.5t60.5 24.5t21.5 57.5t-21.5 57.5t-60.5 24.5t-60.5 -24.5t-21.5 -57.5zM299 494q0 -24 14.5 -41t40.5 -17t42 17.5t16 40.5q0 22 -16 38.5t-42 16.5t-40.5 -16.5t-14.5 -38.5z" />
<glyph unicode="&#xad;" horiz-adv-x="825" d="M147 500v209h535v-209h-535z" />
<glyph unicode="&#xae;" horiz-adv-x="851" d="M106 1198q0 134 95 229t229 95t229 -95t95 -229t-95 -229t-229 -95t-229 95t-95 229zM137 1198q0 -122 85.5 -207.5t207.5 -85.5t207.5 85.5t85.5 207.5t-85.5 207.5t-207.5 85.5t-207.5 -85.5t-85.5 -207.5zM317 1020v373h144q47 0 75.5 -28.5t28.5 -72.5 q0 -49 -28 -74.5t-76 -25.5h-17l121 -172h-37l-118 172h-64v-172h-29zM346 1221h117q74 0 74 71q0 31 -19.5 51.5t-54.5 20.5h-117v-143z" />
<glyph unicode="&#xaf;" horiz-adv-x="710" d="M63 1169v74h594v-74h-594z" />
<glyph unicode="&#xb0;" horiz-adv-x="542" d="M70 1247q0 85 59.5 145t144.5 60t145 -60t60 -145t-60 -145t-145 -60t-144.5 60t-59.5 145zM139 1247q0 -57 40 -97t97 -40t97.5 40t40.5 97t-40.5 97t-97.5 40t-97 -40t-40 -97z" />
<glyph unicode="&#xb1;" horiz-adv-x="919" d="M127 156v209h670v-209h-670zM127 709v209h229v229h211v-229h230v-209h-230v-230h-211v230h-229z" />
<glyph unicode="&#xb2;" d="M109 864l245 342q45 63 45 123t-61 60q-34 0 -50 -27t-16 -68h-155q0 99 58 166.5t169 67.5q109 0 171.5 -54t62.5 -135q0 -68 -22.5 -118t-70.5 -109l-92 -117h187v-131h-471z" />
<glyph unicode="&#xb3;" d="M86 1055h150q0 -26 28.5 -46t69.5 -20q46 0 73 24t27 72q0 53 -29.5 73t-82.5 20v75q47 0 73.5 16t26.5 60q0 74 -92 74q-43 0 -66.5 -22.5t-23.5 -51.5h-148q-2 81 58 141t184 60q112 0 178 -49t66 -131q0 -57 -16.5 -84.5t-51.5 -48.5q88 -30 88 -154q0 -95 -72.5 -151 t-185.5 -56q-120 0 -187 58t-67 141z" />
<glyph unicode="&#xb4;" horiz-adv-x="585" d="M117 1184l256 325l127 -127l-330 -243z" />
<glyph unicode="&#xb5;" d="M76 731v74h540v-74h-540zM109 -4l245 342q45 63 45 123q0 59 -61 59q-34 0 -50 -26.5t-16 -67.5h-155q0 99 58 166t169 67q109 0 171.5 -53.5t62.5 -134.5q0 -68 -22.5 -118t-70.5 -109l-92 -117h187v-131h-471zM186 1399v123h250v-660h-160v537h-90z" />
<glyph unicode="&#xb6;" horiz-adv-x="1175" d="M82 985q-1 112 42 205t111.5 151t150.5 89.5t165 31.5h285v-1661h-179v742h-120q-82 0 -161 29t-145 82.5t-107 139.5t-42 191zM940 -199v1661h178v-1661h-178z" />
<glyph unicode="&#xb7;" horiz-adv-x="606" d="M131 733q0 73 51.5 124.5t124.5 51.5t124.5 -51.5t51.5 -124.5t-51.5 -124.5t-124.5 -51.5t-124.5 51.5t-51.5 124.5z" />
<glyph unicode="&#xb8;" horiz-adv-x="501" d="M109 -176q41 -27 84 -27q55 0 55 56q0 37 -53 63l32 84h125l-24 -68q47 -21 75.5 -61.5t28.5 -93.5q0 -62 -47.5 -102t-126.5 -40q-93 0 -149 35v154z" />
<glyph unicode="&#xb9;" d="M186 1401v123h250v-660h-160v537h-90z" />
<glyph unicode="&#xba;" horiz-adv-x="751" d="M74 653v72h596v-72h-596zM109 1044q0 103 69.5 177.5t192.5 74.5q125 0 193.5 -74.5t68.5 -177.5t-68.5 -178t-191.5 -75q-125 0 -194.5 75t-69.5 178zM272 1047q0 -41 29.5 -71t69.5 -30q41 0 70.5 30t29.5 71q0 40 -29.5 69t-70.5 29q-40 0 -69.5 -29t-29.5 -69z" />
<glyph unicode="&#xbb;" horiz-adv-x="1277" d="M74 410l315 217l-315 217l129 211l471 -344v-168l-463 -336zM647 410l316 217l-316 217l131 211l469 -344v-168l-461 -336z" />
<glyph unicode="&#xbc;" d="M70 111v133l319 409h150v-422h84v-120h-84v-117h-160v117h-309zM76 731v74h540v-74h-540zM186 1401v123h250v-660h-160v537h-90zM201 231h178v228z" />
<glyph unicode="&#xbd;" d="M76 731v74h540v-74h-540zM109 -4l245 342q45 63 45 123q0 59 -61 59q-34 0 -50 -26.5t-16 -67.5h-155q0 99 58 166t169 67q109 0 171.5 -53.5t62.5 -134.5q0 -68 -22.5 -118t-70.5 -109l-92 -117h187v-131h-471zM186 1399v123h250v-660h-160v537h-90z" />
<glyph unicode="&#xbe;" d="M68 106v134l319 409h150v-422h84v-121h-84v-116h-160v116h-309zM76 731v74h540v-74h-540zM86 1055h150q0 -26 28.5 -46t69.5 -20q46 0 73 24t27 72q0 53 -29.5 73t-82.5 20v75q47 0 73.5 16t26.5 60q0 74 -92 74q-43 0 -66.5 -22.5t-23.5 -51.5h-148q-2 81 58 141t184 60 q112 0 178 -49t66 -131q0 -57 -16.5 -84.5t-51.5 -48.5q88 -30 88 -154q0 -95 -72.5 -151t-185.5 -56q-120 0 -187 58t-67 141zM199 227h178v228z" />
<glyph unicode="&#xbf;" horiz-adv-x="1128" d="M51 152q0 219 101.5 340.5t283.5 121.5v144h318v-373h-117q-87 0 -136.5 -49.5t-49.5 -147.5q0 -90 33 -129t106 -39q68 0 98.5 36t38.5 108h354q-4 -64 -23.5 -125.5t-58.5 -120.5t-95 -103t-139.5 -71t-184.5 -27q-108 0 -197 24.5t-150 65.5t-102.5 97t-60.5 118.5 t-19 129.5zM397 1010q0 82 57.5 139t139.5 57t139.5 -57t57.5 -139t-57.5 -139.5t-139.5 -57.5t-139.5 57.5t-57.5 139.5z" />
<glyph unicode="&#xc0;" horiz-adv-x="1378" d="M41 0l451 1462h407l451 -1462h-355l-65 211h-465l-68 -211h-356zM393 1726l107 107l211 -274l-41 -35zM561 537h273l-134 448z" />
<glyph unicode="&#xc1;" horiz-adv-x="1378" d="M41 0l451 1462h407l451 -1462h-355l-65 211h-465l-68 -211h-356zM561 537h273l-134 448zM684 1559l217 276l107 -106l-281 -209z" />
<glyph unicode="&#xc2;" horiz-adv-x="1378" d="M41 0l451 1462h407l451 -1462h-355l-65 211h-465l-68 -211h-356zM438 1608l221 217h70l213 -217l-41 -43l-207 133l-207 -133zM561 537h273l-134 448z" />
<glyph unicode="&#xc3;" horiz-adv-x="1378" d="M41 0l451 1462h407l451 -1462h-355l-65 211h-465l-68 -211h-356zM293 1628q49 59 106.5 90t149.5 31q78 0 166 -43q2 -1 13.5 -8t14.5 -8.5t13 -7t15 -7.5t14.5 -6t16 -5t16 -3.5t19 -3t19.5 -0.5q59 0 94 21t72 63l84 -82q-50 -59 -108.5 -90t-155.5 -31q-84 0 -160 45 q-26 16 -40.5 24t-42.5 15.5t-62 7.5q-32 0 -55.5 -5.5t-44 -20t-29.5 -24t-31 -34.5zM561 537h273l-134 448z" />
<glyph unicode="&#xc4;" horiz-adv-x="1378" d="M41 0l451 1462h407l451 -1462h-355l-65 211h-465l-68 -211h-356zM406 1669q0 51 35.5 87t86.5 36t87 -36t36 -87t-36 -87t-87 -36t-86.5 36t-35.5 87zM561 537h273l-134 448zM729 1669q0 51 36 87t87 36t87 -36t36 -87t-36 -87t-87 -36t-87 36t-36 87z" />
<glyph unicode="&#xc5;" horiz-adv-x="1378" d="M41 0l451 1462h407l451 -1462h-355l-65 211h-465l-68 -211h-356zM524 1671q0 67 48 115.5t116 48.5t116 -48.5t48 -115.5t-48 -115.5t-116 -48.5t-116 48.5t-48 115.5zM561 537h273l-134 448zM580 1671q0 -46 32 -78t78 -32q44 0 76.5 32.5t32.5 77.5q0 46 -32.5 78.5 t-76.5 32.5q-46 0 -78 -32.5t-32 -78.5z" />
<glyph unicode="&#xc6;" horiz-adv-x="1650" d="M35 0l682 1462h866v-270h-397v-307h377v-273h-379v-340h399v-272h-754v408h-251l-177 -408h-366zM664 680h165v418z" />
<glyph unicode="&#xc7;" horiz-adv-x="1290" d="M63 731q0 114 31 222t95 203.5t154.5 167t218.5 113.5t278 42q96 0 167.5 -13.5t101.5 -26.5t87 -44v-381q-44 25 -66.5 36t-67 27.5t-96 23.5t-116.5 7q-99 0 -178 -30.5t-128.5 -83t-75.5 -119.5t-26 -144t26 -144t75.5 -119.5t128.5 -83t178 -30.5q125 0 202.5 22 t143.5 62v-381q-126 -77 -317 -82l-23 -71q22 -11 31.5 -17t32 -24t33 -42t10.5 -54q0 -65 -46.5 -100.5t-117.5 -35.5q-90 0 -154 39v148q41 -27 80 -27q53 0 53 47q0 22 -16 40t-39 24l27 80q-133 13 -246.5 61.5t-193.5 120.5t-136.5 164t-83.5 194t-27 209z" />
<glyph unicode="&#xc8;" horiz-adv-x="1013" d="M127 0v1462h786v-313h-430v-260h406v-314h-406v-262h430v-313h-786zM289 1726l106 107l211 -274l-41 -35z" />
<glyph unicode="&#xc9;" horiz-adv-x="1013" d="M127 0v1462h786v-313h-430v-260h406v-314h-406v-262h430v-313h-786zM420 1559l217 276l106 -106l-278 -209z" />
<glyph unicode="&#xca;" horiz-adv-x="1013" d="M127 0v1462h786v-313h-430v-260h406v-314h-406v-262h430v-313h-786zM270 1608l222 217h67l215 -217l-43 -43l-207 133l-207 -133z" />
<glyph unicode="&#xcb;" horiz-adv-x="1013" d="M127 0v1462h786v-313h-430v-260h406v-314h-406v-262h430v-313h-786zM242 1669q0 51 36 87t87 36t86.5 -36t35.5 -87t-35.5 -87t-86.5 -36t-87 36t-36 87zM565 1669q0 51 36 87t87 36t87 -36t36 -87t-36 -87t-87 -36t-87 36t-36 87z" />
<glyph unicode="&#xcc;" horiz-adv-x="636" d="M20 1726l107 107l211 -274l-41 -35zM143 0v1462h357v-1462h-357z" />
<glyph unicode="&#xcd;" horiz-adv-x="636" d="M143 0v1462h357v-1462h-357zM295 1559l217 276l106 -106l-280 -209z" />
<glyph unicode="&#xce;" horiz-adv-x="636" d="M59 1608l222 217h67l213 -217l-41 -43l-207 133l-207 -133zM143 0v1462h357v-1462h-357z" />
<glyph unicode="&#xcf;" horiz-adv-x="636" d="M25 1669q0 51 35.5 87t86.5 36t87 -36t36 -87t-36 -87t-87 -36t-86.5 36t-35.5 87zM143 0v1462h357v-1462h-357zM348 1669q0 51 36 87t87 36t87 -36t36 -87t-36 -87t-87 -36t-87 36t-36 87z" />
<glyph unicode="&#xd0;" horiz-adv-x="1368" d="M2 641v184h123v637h502q137 0 254 -41t199.5 -111.5t140.5 -164t86 -199t28 -217.5q0 -111 -27.5 -216t-86 -198.5t-140.5 -163t-199 -110.5t-255 -41h-502v641h-123zM481 311h92q119 0 209 59.5t134.5 153t44.5 203.5t-45 205t-135.5 156t-207.5 61h-92v-324h226v-184 h-226v-330z" />
<glyph unicode="&#xd1;" horiz-adv-x="1671" d="M131 0v1462h326l727 -860v860h356v-1462h-356l-697 848v-848h-356zM434 1628q49 59 106.5 90t149.5 31q78 0 166 -43q2 -1 13.5 -8t14.5 -8.5t13 -7t15 -7.5t14.5 -6t16 -5t16 -3.5t19 -3t19.5 -0.5q59 0 94 21t72 63l84 -82q-50 -59 -108.5 -90t-155.5 -31 q-84 0 -160 45q-26 16 -40.5 24t-42.5 15.5t-62 7.5q-32 0 -55.5 -5.5t-44 -20t-29.5 -24t-31 -34.5z" />
<glyph unicode="&#xd2;" horiz-adv-x="1630" d="M66 727q0 153 59.5 292.5t159.5 240t239.5 160t292.5 59.5t292.5 -59.5t240 -160t160 -240t59.5 -292.5t-59.5 -292.5t-160 -240t-240 -160t-292.5 -59.5t-292.5 59.5t-239.5 160t-159.5 240t-59.5 292.5zM418 729q0 -166 116.5 -282.5t282.5 -116.5t283 116.5t117 282.5 t-117 282.5t-283 116.5t-282.5 -116.5t-116.5 -282.5zM530 1726l107 107l211 -274l-41 -35z" />
<glyph unicode="&#xd3;" horiz-adv-x="1630" d="M66 727q0 153 59.5 292.5t159.5 240t239.5 160t292.5 59.5t292.5 -59.5t240 -160t160 -240t59.5 -292.5t-59.5 -292.5t-160 -240t-240 -160t-292.5 -59.5t-292.5 59.5t-239.5 160t-159.5 240t-59.5 292.5zM418 729q0 -166 116.5 -282.5t282.5 -116.5t283 116.5t117 282.5 t-117 282.5t-283 116.5t-282.5 -116.5t-116.5 -282.5zM729 1559l217 276l107 -106l-279 -209z" />
<glyph unicode="&#xd4;" horiz-adv-x="1630" d="M66 727q0 153 59.5 292.5t159.5 240t239.5 160t292.5 59.5t292.5 -59.5t240 -160t160 -240t59.5 -292.5t-59.5 -292.5t-160 -240t-240 -160t-292.5 -59.5t-292.5 59.5t-239.5 160t-159.5 240t-59.5 292.5zM418 729q0 -166 116.5 -282.5t282.5 -116.5t283 116.5t117 282.5 t-117 282.5t-283 116.5t-282.5 -116.5t-116.5 -282.5zM555 1608l223 217h68l213 -217l-41 -43l-207 133l-207 -133z" />
<glyph unicode="&#xd5;" horiz-adv-x="1630" d="M66 727q0 153 59.5 292.5t159.5 240t239.5 160t292.5 59.5t292.5 -59.5t240 -160t160 -240t59.5 -292.5t-59.5 -292.5t-160 -240t-240 -160t-292.5 -59.5t-292.5 59.5t-239.5 160t-159.5 240t-59.5 292.5zM397 1628q49 59 106.5 90t149.5 31q78 0 166 -43q2 -1 12.5 -7.5 t13 -7.5t12 -6.5t13 -7t12.5 -5.5t14 -5t14 -4t16.5 -3.5t16.5 -1.5t18 -1q58 0 93 20.5t72 63.5l84 -82q-50 -59 -108.5 -90t-155.5 -31q-84 0 -160 45q-26 16 -40.5 24t-42.5 15.5t-62 7.5q-32 0 -55.5 -5.5t-44 -20t-29.5 -24t-31 -34.5zM418 729q0 -166 116.5 -282.5 t282.5 -116.5t283 116.5t117 282.5t-117 282.5t-283 116.5t-282.5 -116.5t-116.5 -282.5z" />
<glyph unicode="&#xd6;" horiz-adv-x="1630" d="M66 727q0 153 59.5 292.5t159.5 240t239.5 160t292.5 59.5t292.5 -59.5t240 -160t160 -240t59.5 -292.5t-59.5 -292.5t-160 -240t-240 -160t-292.5 -59.5t-292.5 59.5t-239.5 160t-159.5 240t-59.5 292.5zM418 729q0 -166 116.5 -282.5t282.5 -116.5t283 116.5t117 282.5 t-117 282.5t-283 116.5t-282.5 -116.5t-116.5 -282.5zM535 1669q0 51 35.5 87t86.5 36t87 -36t36 -87t-36 -87t-87 -36t-86.5 36t-35.5 87zM858 1669q0 51 36 87t87 36t87 -36t36 -87t-36 -87t-87 -36t-87 36t-36 87z" />
<glyph unicode="&#xd7;" horiz-adv-x="1155" d="M78 115l401 403l-401 402l98 98l402 -404l403 404l98 -98l-403 -402l403 -403l-98 -99l-403 404l-402 -404z" />
<glyph unicode="&#xd8;" horiz-adv-x="1630" d="M66 727q0 153 59.5 292.5t159.5 240t239.5 160t292.5 59.5q169 0 318 -70l59 96h209l-117 -188q132 -105 207.5 -259t75.5 -331q0 -153 -59.5 -292.5t-160 -240t-240 -160t-292.5 -59.5q-163 0 -319 70l-54 -86h-206l110 178q-131 105 -206.5 259t-75.5 331zM418 729 q0 -169 119 -285l411 662q-64 22 -131 22q-166 0 -282.5 -116.5t-116.5 -282.5zM688 350q68 -20 129 -20q166 0 283 116.5t117 282.5q0 169 -119 285z" />
<glyph unicode="&#xd9;" horiz-adv-x="1320" d="M104 467v995h355v-956q0 -102 57 -153.5t148 -51.5q90 0 147 51.5t57 153.5v956h357v-995q0 -119 -44.5 -212t-122 -151t-178 -88t-216.5 -30q-92 0 -174.5 18.5t-153.5 57.5t-122.5 95t-80.5 135.5t-29 174.5zM381 1726l106 107l211 -274l-43 -35z" />
<glyph unicode="&#xda;" horiz-adv-x="1320" d="M104 467v995h355v-956q0 -102 57 -153.5t148 -51.5q90 0 147 51.5t57 153.5v956h357v-995q0 -119 -44.5 -212t-122 -151t-178 -88t-216.5 -30q-92 0 -174.5 18.5t-153.5 57.5t-122.5 95t-80.5 135.5t-29 174.5zM600 1559l217 276l107 -106l-281 -209z" />
<glyph unicode="&#xdb;" horiz-adv-x="1320" d="M104 467v995h355v-956q0 -102 57 -153.5t148 -51.5q90 0 147 51.5t57 153.5v956h357v-995q0 -119 -44.5 -212t-122 -151t-178 -88t-216.5 -30q-92 0 -174.5 18.5t-153.5 57.5t-122.5 95t-80.5 135.5t-29 174.5zM410 1608l221 217h69l213 -217l-41 -43l-208 133l-207 -133 z" />
<glyph unicode="&#xdc;" horiz-adv-x="1320" d="M104 467v995h355v-956q0 -102 57 -153.5t148 -51.5q90 0 147 51.5t57 153.5v956h357v-995q0 -119 -44.5 -212t-122 -151t-178 -88t-216.5 -30q-92 0 -174.5 18.5t-153.5 57.5t-122.5 95t-80.5 135.5t-29 174.5zM369 1669q0 51 36 87t87 36t86.5 -36t35.5 -87t-35.5 -87 t-86.5 -36t-87 36t-36 87zM692 1669q0 51 36 87t87 36t87 -36t36 -87t-36 -87t-87 -36t-87 36t-36 87z" />
<glyph unicode="&#xdd;" horiz-adv-x="1347" d="M39 1462h399l242 -381l225 381h418l-467 -721v-741h-354v741zM614 1559l217 276l107 -106l-279 -209z" />
<glyph unicode="&#xde;" horiz-adv-x="1175" d="M125 0v1462h356v-260h191q202 0 335.5 -125.5t133.5 -335.5t-133.5 -334t-335.5 -124h-191v-283h-356zM481 596h158q74 0 110.5 39t36.5 106q0 65 -40 106.5t-107 41.5h-158v-293z" />
<glyph unicode="&#xdf;" horiz-adv-x="1425" d="M78 649v293h115v107q0 131 71 226t186 141t257 46q90 0 174 -23t151.5 -65.5t108.5 -110.5t41 -151q0 -50 -7 -87t-16.5 -59t-30.5 -41t-35.5 -28t-45.5 -25q54 -6 107.5 -32t101.5 -70.5t78 -116.5t30 -159q0 -84 -15 -156.5t-48.5 -135.5t-83 -107.5t-123 -69.5 t-164.5 -25h-217v272h80q225 0 225 222q0 113 -70.5 166t-232.5 53v248q75 0 107 29.5t32 92.5q0 48 -39 78.5t-108 30.5q-73 0 -116.5 -47t-43.5 -123v-1022h-354v649h-115z" />
<glyph unicode="&#xe0;" horiz-adv-x="1234" d="M61 467q0 93 30 179t86.5 155.5t148 111t204.5 41.5q199 0 283 -73v69h313v-950h-313v59q-30 -22 -58.5 -37t-88.5 -28.5t-136 -13.5q-113 0 -204.5 41.5t-148 111t-86.5 155.5t-30 179zM268 1382l127 127l254 -325l-51 -45zM412 475q0 -79 57 -136.5t137 -57.5 t137.5 57.5t57.5 136.5t-57.5 137t-137.5 58q-79 0 -136.5 -57.5t-57.5 -137.5z" />
<glyph unicode="&#xe1;" horiz-adv-x="1234" d="M61 467q0 93 30 179t86.5 155.5t148 111t204.5 41.5q199 0 283 -73v69h313v-950h-313v59q-30 -22 -58.5 -37t-88.5 -28.5t-136 -13.5q-113 0 -204.5 41.5t-148 111t-86.5 155.5t-30 179zM412 475q0 -79 57 -136.5t137 -57.5t137.5 57.5t57.5 136.5t-57.5 137t-137.5 58 q-79 0 -136.5 -57.5t-57.5 -137.5zM481 1184l254 325l127 -127l-330 -243z" />
<glyph unicode="&#xe2;" horiz-adv-x="1234" d="M61 467q0 93 30 179t86.5 155.5t148 111t204.5 41.5q199 0 283 -73v69h313v-950h-313v59q-30 -22 -58.5 -37t-88.5 -28.5t-136 -13.5q-113 0 -204.5 41.5t-148 111t-86.5 155.5t-30 179zM311 1165l246 244h76l239 -244l-47 -45l-229 146l-229 -146zM412 475 q0 -79 57 -136.5t137 -57.5t137.5 57.5t57.5 136.5t-57.5 137t-137.5 58q-79 0 -136.5 -57.5t-57.5 -137.5z" />
<glyph unicode="&#xe3;" horiz-adv-x="1234" d="M61 467q0 93 30 179t86.5 155.5t148 111t204.5 41.5q199 0 283 -73v69h313v-950h-313v59q-30 -22 -58.5 -37t-88.5 -28.5t-136 -13.5q-113 0 -204.5 41.5t-148 111t-86.5 155.5t-30 179zM201 1235q49 59 106.5 90t149.5 31q78 0 166 -43q2 -1 13.5 -8t14.5 -8.5t13 -7 t15 -7.5t14.5 -6t16 -5t16 -3.5t19 -3t19.5 -0.5q59 0 94 21t72 63l84 -82q-50 -59 -108.5 -90t-155.5 -31q-84 0 -160 45q-25 16 -40 24t-43.5 15.5t-62.5 7.5q-32 0 -55.5 -5t-44 -20.5t-29 -24t-30.5 -34.5zM412 475q0 -79 57 -136.5t137 -57.5t137.5 57.5t57.5 136.5 t-57.5 137t-137.5 58q-79 0 -136.5 -57.5t-57.5 -137.5z" />
<glyph unicode="&#xe4;" horiz-adv-x="1234" d="M61 467q0 93 30 179t86.5 155.5t148 111t204.5 41.5q199 0 283 -73v69h313v-950h-313v59q-30 -22 -58.5 -37t-88.5 -28.5t-136 -13.5q-113 0 -204.5 41.5t-148 111t-86.5 155.5t-30 179zM260 1294q0 63 45.5 108.5t108.5 45.5t108 -45.5t45 -108.5t-45 -108t-108 -45 t-108.5 45t-45.5 108zM412 475q0 -79 57 -136.5t137 -57.5t137.5 57.5t57.5 136.5t-57.5 137t-137.5 58q-79 0 -136.5 -57.5t-57.5 -137.5zM666 1294q0 63 45 108.5t108 45.5t108.5 -45.5t45.5 -108.5t-45.5 -108t-108.5 -45t-108 45t-45 108z" />
<glyph unicode="&#xe5;" horiz-adv-x="1234" d="M61 467q0 93 30 179t86.5 155.5t148 111t204.5 41.5q199 0 283 -73v69h313v-950h-313v59q-30 -22 -58.5 -37t-88.5 -28.5t-136 -13.5q-113 0 -204.5 41.5t-148 111t-86.5 155.5t-30 179zM385 1247q0 85 60 145t145 60t145 -60t60 -145t-60 -145t-145 -60t-145 60t-60 145 zM412 475q0 -79 57 -136.5t137 -57.5t137.5 57.5t57.5 136.5t-57.5 137t-137.5 58q-79 0 -136.5 -57.5t-57.5 -137.5zM455 1247q0 -57 40 -97t97 -40t97 40t40 97t-40 97t-97 40t-97 -40t-40 -97z" />
<glyph unicode="&#xe6;" horiz-adv-x="2064" d="M61 467q0 93 30 179t86.5 155.5t148 111t204.5 41.5q199 0 283 -73v69h313v-121q132 125 342 125q134 0 237.5 -40t165.5 -110t93 -158.5t31 -192.5q0 -36 -2 -52h-674q2 -71 48 -119.5t120 -48.5q146 0 176 76h313q-15 -47 -35.5 -88t-61.5 -87.5t-94 -79.5t-136 -55 t-185 -22q-202 0 -338 123v-100h-313v59q-30 -22 -58.5 -37t-88.5 -28.5t-136 -13.5q-113 0 -204.5 41.5t-148 111t-86.5 155.5t-30 179zM412 475q0 -79 57 -136.5t137 -57.5t137.5 57.5t57.5 136.5t-57.5 137t-137.5 58q-79 0 -136.5 -57.5t-57.5 -137.5zM1321 604h328 q-5 50 -48 89.5t-118 39.5t-117.5 -40t-44.5 -89z" />
<glyph unicode="&#xe7;" horiz-adv-x="851" d="M29 465q0 93 30.5 179.5t88.5 156t151.5 111.5t208.5 42q165 0 289 -55v-307q-33 20 -52 29t-62 18.5t-99 9.5q-91 0 -146 -50.5t-55 -133.5q0 -82 54 -126t147 -44q80 0 128 16.5t85 50.5v-315q-97 -58 -230 -67l-22 -58q28 -10 50.5 -38t22.5 -66q0 -58 -37 -91.5 t-102 -33.5q-76 0 -135 41v90q45 -25 74 -25q30 0 44.5 15t14.5 39q0 20 -15.5 37t-35.5 26l25 64q-102 10 -184 55t-133 112.5t-78 149t-27 168.5z" />
<glyph unicode="&#xe8;" horiz-adv-x="1122" d="M53 467q0 74 21 146t64.5 136.5t103.5 114t143.5 78.5t179.5 29q108 0 195.5 -28t147 -76.5t100 -115t59 -141t18.5 -157.5q0 -36 -2 -52h-688q2 -74 48 -121t122 -47q146 0 176 76h314q-15 -47 -35.5 -88t-61 -88.5t-92.5 -81t-134 -56t-181 -22.5q-120 0 -217 42.5 t-157 113.5t-92 158t-32 180zM260 1382l127 127l254 -325l-51 -45zM399 604h328q-5 50 -48 89.5t-118 39.5t-117.5 -40t-44.5 -89z" />
<glyph unicode="&#xe9;" horiz-adv-x="1122" d="M53 467q0 74 21 146t64.5 136.5t103.5 114t143.5 78.5t179.5 29q108 0 195.5 -28t147 -76.5t100 -115t59 -141t18.5 -157.5q0 -36 -2 -52h-688q2 -74 48 -121t122 -47q146 0 176 76h314q-15 -47 -35.5 -88t-61 -88.5t-92.5 -81t-134 -56t-181 -22.5q-120 0 -217 42.5 t-157 113.5t-92 158t-32 180zM399 604h328q-5 50 -48 89.5t-118 39.5t-117.5 -40t-44.5 -89zM494 1184l254 325l129 -127l-332 -243z" />
<glyph unicode="&#xea;" horiz-adv-x="1122" d="M53 467q0 74 21 146t64.5 136.5t103.5 114t143.5 78.5t179.5 29q108 0 195.5 -28t147 -76.5t100 -115t59 -141t18.5 -157.5q0 -36 -2 -52h-688q2 -74 48 -121t122 -47q146 0 176 76h314q-15 -47 -35.5 -88t-61 -88.5t-92.5 -81t-134 -56t-181 -22.5q-120 0 -217 42.5 t-157 113.5t-92 158t-32 180zM266 1165l246 244h76l237 -244l-45 -45l-231 146l-230 -146zM399 604h328q-5 50 -48 89.5t-118 39.5t-117.5 -40t-44.5 -89z" />
<glyph unicode="&#xeb;" horiz-adv-x="1122" d="M53 467q0 74 21 146t64.5 136.5t103.5 114t143.5 78.5t179.5 29q108 0 195.5 -28t147 -76.5t100 -115t59 -141t18.5 -157.5q0 -36 -2 -52h-688q2 -74 48 -121t122 -47q146 0 176 76h314q-15 -47 -35.5 -88t-61 -88.5t-92.5 -81t-134 -56t-181 -22.5q-120 0 -217 42.5 t-157 113.5t-92 158t-32 180zM186 1294q0 63 45.5 108.5t108.5 45.5t108.5 -45.5t45.5 -108.5t-45.5 -108t-108.5 -45t-108.5 45t-45.5 108zM399 604h328q-5 50 -48 89.5t-118 39.5t-117.5 -40t-44.5 -89zM592 1294q0 63 45 108.5t108 45.5t108.5 -45.5t45.5 -108.5 t-45.5 -108t-108.5 -45t-108 45t-45 108z" />
<glyph unicode="&#xec;" horiz-adv-x="520" d="M-53 1382l127 127l256 -325l-54 -45zM86 0v942h356v-942h-356z" />
<glyph unicode="&#xed;" horiz-adv-x="520" d="M90 0v942h356v-942h-356zM219 1184l254 325l127 -127l-330 -243z" />
<glyph unicode="&#xee;" horiz-adv-x="520" d="M-23 1165l248 244h76l238 -244l-47 -45l-230 146l-229 -146zM86 0v942h356v-942h-356z" />
<glyph unicode="&#xef;" horiz-adv-x="520" d="M-84 1294q0 63 45.5 108.5t108.5 45.5t108 -45.5t45 -108.5t-45 -108t-108 -45t-108.5 45t-45.5 108zM90 0v942h356v-942h-356zM322 1294q0 63 45 108.5t108 45.5t108.5 -45.5t45.5 -108.5t-45.5 -108t-108.5 -45t-108 45t-45 108z" />
<glyph unicode="&#xf0;" horiz-adv-x="1130" d="M53 473q0 95 33.5 183t96 159.5t164 114.5t226.5 43q74 0 115 -10q-19 69 -60.5 133t-97.5 110l-241 -151l-129 82l243 157q-158 93 -309 144l150 155q233 -74 374 -166l234 144l129 -84l-229 -144q152 -100 243.5 -317.5t91.5 -527.5q0 -77 -20 -151.5t-62 -142 t-101.5 -119t-145 -82t-185.5 -30.5q-125 0 -226.5 42.5t-164 113.5t-96 159.5t-33.5 184.5zM377 471q0 -80 57.5 -137.5t136.5 -57.5q82 0 138.5 57.5t56.5 137.5t-56.5 137.5t-138.5 57.5q-79 0 -136.5 -57.5t-57.5 -137.5z" />
<glyph unicode="&#xf1;" horiz-adv-x="1191" d="M92 0v942h352v-86q102 102 304 102q370 0 370 -368v-590h-352v514q0 99 -30.5 150t-119.5 51q-51 0 -87 -15.5t-53.5 -42t-24.5 -52.5t-7 -56v-549h-352zM201 1235q49 59 106.5 90t149.5 31q78 0 166 -43q2 -1 13.5 -8t14.5 -8.5t13 -7t15 -7.5t14.5 -6t16 -5t16 -3.5 t19 -3t19.5 -0.5q59 0 94 21t72 63l84 -82q-50 -59 -108.5 -90t-155.5 -31q-84 0 -160 45q-25 16 -40 24t-43.5 15.5t-62.5 7.5q-32 0 -55.5 -5t-44 -20.5t-29 -24t-30.5 -34.5z" />
<glyph unicode="&#xf2;" horiz-adv-x="1130" d="M53 473q0 95 33.5 183t96 159.5t164 114.5t226.5 43t225.5 -43t162 -114.5t94 -159.5t32.5 -183q0 -97 -32.5 -185t-94 -159t-162 -113.5t-225.5 -42.5t-226.5 42.5t-164 113.5t-96 159.5t-33.5 184.5zM238 1382l129 127l254 -325l-52 -45zM377 471q0 -80 57.5 -137.5 t136.5 -57.5q82 0 138.5 57.5t56.5 137.5t-56.5 137.5t-138.5 57.5q-79 0 -136.5 -57.5t-57.5 -137.5z" />
<glyph unicode="&#xf3;" horiz-adv-x="1130" d="M53 473q0 95 33.5 183t96 159.5t164 114.5t226.5 43t225.5 -43t162 -114.5t94 -159.5t32.5 -183q0 -97 -32.5 -185t-94 -159t-162 -113.5t-225.5 -42.5t-226.5 42.5t-164 113.5t-96 159.5t-33.5 184.5zM377 471q0 -80 57.5 -137.5t136.5 -57.5q82 0 138.5 57.5 t56.5 137.5t-56.5 137.5t-138.5 57.5q-79 0 -136.5 -57.5t-57.5 -137.5zM522 1184l256 325l127 -127l-330 -243z" />
<glyph unicode="&#xf4;" horiz-adv-x="1130" d="M53 473q0 95 33.5 183t96 159.5t164 114.5t226.5 43t225.5 -43t162 -114.5t94 -159.5t32.5 -183q0 -97 -32.5 -185t-94 -159t-162 -113.5t-225.5 -42.5t-226.5 42.5t-164 113.5t-96 159.5t-33.5 184.5zM291 1165l246 244h75l238 -244l-45 -45l-230 146l-231 -146z M377 471q0 -80 57.5 -137.5t136.5 -57.5q82 0 138.5 57.5t56.5 137.5t-56.5 137.5t-138.5 57.5q-79 0 -136.5 -57.5t-57.5 -137.5z" />
<glyph unicode="&#xf5;" horiz-adv-x="1130" d="M53 473q0 95 33.5 183t96 159.5t164 114.5t226.5 43t225.5 -43t162 -114.5t94 -159.5t32.5 -183q0 -97 -32.5 -185t-94 -159t-162 -113.5t-225.5 -42.5t-226.5 42.5t-164 113.5t-96 159.5t-33.5 184.5zM186 1235q49 59 106.5 90t149.5 31q78 0 166 -43q2 -1 12.5 -7.5 t13 -7.5t12 -6.5t13 -7t12.5 -5.5t14 -5t14 -4t16.5 -3.5t16.5 -1.5t18 -1q58 0 93 20.5t72 63.5l84 -82q-50 -59 -108.5 -90t-155.5 -31q-84 0 -160 45q-26 16 -40.5 24t-42.5 15.5t-62 7.5q-32 0 -55.5 -5.5t-44 -20t-29.5 -24t-31 -34.5zM377 471q0 -80 57.5 -137.5 t136.5 -57.5q82 0 138.5 57.5t56.5 137.5t-56.5 137.5t-138.5 57.5q-79 0 -136.5 -57.5t-57.5 -137.5z" />
<glyph unicode="&#xf6;" horiz-adv-x="1130" d="M53 473q0 95 33.5 183t96 159.5t164 114.5t226.5 43t225.5 -43t162 -114.5t94 -159.5t32.5 -183q0 -97 -32.5 -185t-94 -159t-162 -113.5t-225.5 -42.5t-226.5 42.5t-164 113.5t-96 159.5t-33.5 184.5zM211 1294q0 63 45.5 108.5t108.5 45.5t108 -45.5t45 -108.5 t-45 -108t-108 -45t-108.5 45t-45.5 108zM377 471q0 -80 57.5 -137.5t136.5 -57.5q82 0 138.5 57.5t56.5 137.5t-56.5 137.5t-138.5 57.5q-79 0 -136.5 -57.5t-57.5 -137.5zM616 1294q0 63 45.5 108.5t108.5 45.5t108.5 -45.5t45.5 -108.5t-45.5 -108t-108.5 -45t-108.5 45 t-45.5 108z" />
<glyph unicode="&#xf7;" horiz-adv-x="866" d="M117 500v145h626v-145h-626zM276 174q0 66 46 112t112 46q67 0 113.5 -46t46.5 -112t-46.5 -113t-113.5 -47q-66 0 -112 47t-46 113zM276 967q0 66 46 111.5t112 45.5q67 0 113.5 -45.5t46.5 -111.5t-46.5 -113t-113.5 -47q-66 0 -112 47t-46 113z" />
<glyph unicode="&#xf8;" horiz-adv-x="1130" d="M53 473q0 95 33 183t95.5 159t163.5 113.5t226 42.5q115 0 213 -37l39 65h131l-69 -120q98 -69 150 -177.5t52 -230.5q0 -75 -20 -147t-62.5 -135.5t-102.5 -111.5t-144.5 -76t-184.5 -28q-105 0 -202 33l-33 -53h-131q7 14 61 104q-104 69 -159.5 180t-55.5 236z M377 475q0 -79 57.5 -136.5t136.5 -57.5q80 0 137.5 57.5t57.5 136.5t-58 137t-137 58t-136.5 -57.5t-57.5 -137.5z" />
<glyph unicode="&#xf9;" horiz-adv-x="1132" d="M88 381v561h354v-543q0 -64 34 -96.5t93 -32.5q58 0 91.5 32t33.5 97v543h355v-561q0 -191 -129.5 -297.5t-350.5 -106.5t-351 106.5t-130 297.5zM229 1382l127 127l256 -325l-53 -45z" />
<glyph unicode="&#xfa;" horiz-adv-x="1132" d="M88 381v561h354v-543q0 -64 34 -96.5t93 -32.5q58 0 91.5 32t33.5 97v543h355v-561q0 -191 -129.5 -297.5t-350.5 -106.5t-351 106.5t-130 297.5zM514 1184l256 325l127 -127l-330 -243z" />
<glyph unicode="&#xfb;" horiz-adv-x="1132" d="M88 381v561h354v-543q0 -64 34 -96.5t93 -32.5q58 0 91.5 32t33.5 97v543h355v-561q0 -191 -129.5 -297.5t-350.5 -106.5t-351 106.5t-130 297.5zM287 1165l245 244h76l238 -244l-45 -45l-230 146l-231 -146z" />
<glyph unicode="&#xfc;" horiz-adv-x="1132" d="M88 381v561h354v-543q0 -64 34 -96.5t93 -32.5q58 0 91.5 32t33.5 97v543h355v-561q0 -191 -129.5 -297.5t-350.5 -106.5t-351 106.5t-130 297.5zM211 1294q0 63 45.5 108.5t108.5 45.5t108 -45.5t45 -108.5t-45 -108t-108 -45t-108.5 45t-45.5 108zM616 1294 q0 63 45.5 108.5t108.5 45.5t108.5 -45.5t45.5 -108.5t-45.5 -108t-108.5 -45t-108.5 45t-45.5 108z" />
<glyph unicode="&#xfd;" horiz-adv-x="1306" d="M31 942h354l272 -496l273 496h356l-754 -1354h-354l303 549zM588 1184l256 325l127 -127l-330 -243z" />
<glyph unicode="&#xfe;" horiz-adv-x="1226" d="M102 -410v1926h314v-633q114 80 282 80q113 0 204.5 -41.5t148 -111t86.5 -156t30 -179.5t-30 -179t-86.5 -155.5t-148 -111t-204.5 -41.5t-173.5 19t-108.5 54v-471h-314zM420 467q0 -80 57.5 -137.5t136.5 -57.5q80 0 137.5 58t57.5 137t-57.5 137t-137.5 58 q-79 0 -136.5 -57.5t-57.5 -137.5z" />
<glyph unicode="&#xff;" horiz-adv-x="1306" d="M31 942h354l272 -496l273 496h356l-754 -1354h-354l303 549zM291 1294q0 63 45 108.5t108 45.5t108.5 -45.5t45.5 -108.5t-45.5 -108t-108.5 -45t-108 45t-45 108zM696 1294q0 63 45.5 108.5t108.5 45.5t108.5 -45.5t45.5 -108.5t-45.5 -108t-108.5 -45t-108.5 45 t-45.5 108z" />
<glyph unicode="&#x152;" horiz-adv-x="2256" d="M66 727q0 153 59.5 292.5t159.5 240t239.5 160t292.5 59.5q188 0 350 -86t265 -234l2 303h743v-270h-389v-307h358v-273h-356v-340h387v-272h-743l-2 293q-103 -147 -265 -232.5t-350 -85.5q-153 0 -292.5 59.5t-239.5 160t-159.5 240t-59.5 292.5zM418 729 q0 -166 116.5 -282.5t282.5 -116.5t283 116.5t117 282.5t-117 282.5t-283 116.5t-282.5 -116.5t-116.5 -282.5z" />
<glyph unicode="&#x153;" horiz-adv-x="1849" d="M53 473q0 95 33 183t95.5 159t163.5 113.5t226 42.5q214 0 355 -125q138 125 342 125q108 0 195.5 -28t147 -76.5t100 -115t59 -141t18.5 -157.5q0 -36 -2 -52h-688q2 -74 48 -121t122 -47q146 0 176 76h313q-15 -47 -35.5 -88t-61 -88.5t-92.5 -81t-134 -56t-181 -22.5 q-199 0 -335 119q-132 -119 -345 -119q-101 0 -187 28t-146.5 76t-103 112t-63 136t-20.5 148zM377 475q0 -79 57.5 -136.5t136.5 -57.5q80 0 137.5 57.5t57.5 136.5t-58 137t-137 58t-136.5 -57.5t-57.5 -137.5zM1102 604h328q-5 50 -48 89.5t-118 39.5t-117.5 -40 t-44.5 -89z" />
<glyph unicode="&#x178;" horiz-adv-x="1347" d="M39 1462h399l242 -381l225 381h418l-467 -721v-741h-354v741zM381 1669q0 51 36 87t87 36t87 -36t36 -87t-36 -87t-87 -36t-87 36t-36 87zM705 1669q0 51 35.5 87t86.5 36t87 -36t36 -87t-36 -87t-87 -36t-86.5 36t-35.5 87z" />
<glyph unicode="&#x2c6;" horiz-adv-x="804" d="M131 1165l248 244h74l239 -244l-47 -45l-229 146l-230 -146z" />
<glyph unicode="&#x2dc;" horiz-adv-x="950" d="M74 1235q49 59 106.5 90t149.5 31q78 0 166 -43q2 -1 13.5 -8t14.5 -8.5t13 -7t15 -7.5t14.5 -6t16 -5t16 -3.5t19 -3t19.5 -0.5q59 0 94 21t72 63l84 -82q-50 -59 -108.5 -90t-155.5 -31q-84 0 -160 45q-25 16 -40 24t-43.5 15.5t-62.5 7.5q-32 0 -55.5 -5t-44 -20.5 t-29 -24t-30.5 -34.5z" />
<glyph unicode="&#x2000;" horiz-adv-x="917" />
<glyph unicode="&#x2001;" horiz-adv-x="1835" />
<glyph unicode="&#x2002;" horiz-adv-x="917" />
<glyph unicode="&#x2003;" horiz-adv-x="1835" />
<glyph unicode="&#x2004;" horiz-adv-x="611" />
<glyph unicode="&#x2005;" horiz-adv-x="458" />
<glyph unicode="&#x2006;" horiz-adv-x="305" />
<glyph unicode="&#x2007;" horiz-adv-x="305" />
<glyph unicode="&#x2008;" horiz-adv-x="229" />
<glyph unicode="&#x2009;" horiz-adv-x="367" />
<glyph unicode="&#x200a;" horiz-adv-x="101" />
<glyph unicode="&#x2010;" horiz-adv-x="825" d="M147 500v209h535v-209h-535z" />
<glyph unicode="&#x2011;" horiz-adv-x="825" d="M147 500v209h535v-209h-535z" />
<glyph unicode="&#x2012;" horiz-adv-x="825" d="M147 500v209h535v-209h-535z" />
<glyph unicode="&#x2013;" horiz-adv-x="1191" d="M127 500v209h930v-209h-930z" />
<glyph unicode="&#x2014;" horiz-adv-x="1714" d="M127 500v209h1464v-209h-1464z" />
<glyph unicode="&#x2018;" horiz-adv-x="450" d="M127 1270v270h209v-213h-78v-57q0 -85 59 -164h-135q-55 64 -55 164z" />
<glyph unicode="&#x2019;" horiz-adv-x="450" d="M123 1327v213h209v-270q0 -99 -56 -164h-135q60 81 60 164v57h-78z" />
<glyph unicode="&#x201a;" horiz-adv-x="481" d="M141 0v213h209v-270q0 -100 -55 -164h-135q59 79 59 164v57h-78z" />
<glyph unicode="&#x201c;" horiz-adv-x="751" d="M127 1270v270h209v-213h-78v-57q0 -85 59 -164h-135q-55 64 -55 164zM434 1270v270h209v-213h-78v-57q0 -83 60 -164h-136q-55 64 -55 164z" />
<glyph unicode="&#x201d;" horiz-adv-x="774" d="M141 1327v213h209v-270q0 -100 -55 -164h-135q59 79 59 164v57h-78zM449 1327v213h208v-270q0 -100 -55 -164h-135q59 79 59 164v57h-77z" />
<glyph unicode="&#x201e;" horiz-adv-x="774" d="M141 0v213h209v-270q0 -100 -55 -164h-135q59 79 59 164v57h-78zM449 0v213h208v-270q0 -100 -55 -164h-135q59 79 59 164v57h-77z" />
<glyph unicode="&#x2022;" horiz-adv-x="1024" d="M137 551q0 154 108.5 262.5t262.5 108.5t262.5 -108.5t108.5 -262.5t-108.5 -262.5t-262.5 -108.5t-262.5 108.5t-108.5 262.5z" />
<glyph unicode="&#x2026;" horiz-adv-x="1943" d="M217 168q0 74 51.5 125t124.5 51t124.5 -51t51.5 -125t-51.5 -125t-124.5 -51t-124.5 51t-51.5 125zM788 168q0 73 51.5 124.5t125.5 51.5q73 0 124.5 -51t51.5 -125t-51.5 -125t-124.5 -51q-74 0 -125.5 51.5t-51.5 124.5zM1362 168q0 74 51 125t125 51t125 -51t51 -125 t-51 -125t-125 -51t-125 51t-51 125z" />
<glyph unicode="&#x202f;" horiz-adv-x="367" />
<glyph unicode="&#x2039;" horiz-adv-x="720" d="M53 543v168l469 344l129 -211l-315 -217l315 -217l-137 -203z" />
<glyph unicode="&#x203a;" horiz-adv-x="720" d="M74 410l315 217l-315 217l129 211l471 -344v-168l-463 -336z" />
<glyph unicode="&#x205f;" horiz-adv-x="458" />
<glyph unicode="&#x2122;" horiz-adv-x="751" d="M39 1440v37h289v-37h-125v-355h-37v355h-127zM307 1087l88 396l125 -314l127 314l84 -396h-39l-55 259l-117 -281l-114 281l-58 -259h-41z" />
<glyph unicode="&#x25fc;" horiz-adv-x="942" d="M0 0v942h942v-942h-942z" />
</font>
</defs>
</svg>
