<?xml version="1.0" encoding="utf-8"?>
<!-- Generator: Adobe Illustrator 16.0.4, SVG Export Plug-In . SVG Version: 6.00 Build 0)  -->
<!DOCTYPE svg PUBLIC "-//W3C//DTD SVG 1.1//EN" "http://www.w3.org/Graphics/SVG/1.1/DTD/svg11.dtd">
<svg version="1.1" id="Layer_1" xmlns="http://www.w3.org/2000/svg" xmlns:xlink="http://www.w3.org/1999/xlink" x="0px" y="0px"
	 width="680px" height="680px" viewBox="0 0 680 680" enable-background="new 0 0 680 680" xml:space="preserve">
<g>
	<path fill="#FFFFFF" d="M526.249,460.152c-26.941-29.073-47.463-65.963-67.299-101.643
		c-40.665-73.129-68.985-117.535-119.199-117.535c-50.216,0-78.531,44.406-119.194,117.535
		c-19.841,35.676-40.356,72.565-67.299,101.643c-30.949,33.389-65.488,51.306-105.236,54.516
		C107.447,613.709,215.86,680,339.765,680s232.315-66.29,291.741-165.33C591.743,511.462,557.197,493.545,526.249,460.152z"/>
	<path fill="#FFFFFF" d="M35.105,439.026c50.223,0,78.371-44.408,119.043-117.534c19.828-35.676,40.268-72.564,67.213-101.643
		c34.327-37.039,73.033-55.047,118.423-55.047c45.394,0,84.144,18.008,118.476,55.047c26.931,29.078,47.435,65.967,67.271,101.643
		c40.664,73.126,68.982,117.534,119.202,117.534c7.537,0,14.578-1.008,21.243-2.955c8.959-30.468,13.788-62.703,13.788-96.071
		c0-187.777-152.226-340-339.999-340S-0.236,152.223-0.236,340c0,33.33,4.818,65.53,13.757,95.967
		C20.28,437.984,27.432,439.026,35.105,439.026z"/>
</g>
</svg>
